<svg width="43" height="36" viewBox="0 0 43 36" fill="none" xmlns="http://www.w3.org/2000/svg">
<path d="M25.21 12.71C26.1904 11.9387 26.906 10.8809 27.2572 9.68394C27.6085 8.48697 27.5779 7.21027 27.1698 6.03147C26.7617 4.85267 25.9963 3.83039 24.9801 3.10686C23.9639 2.38332 22.7474 1.99451 21.5 1.99451C20.2525 1.99451 19.0361 2.38332 18.0199 3.10686C17.0037 3.83039 16.2383 4.85267 15.8302 6.03147C15.4221 7.21027 15.3915 8.48697 15.7428 9.68394C16.094 10.8809 16.8096 11.9387 17.79 12.71C16.1101 13.383 14.6443 14.4994 13.5489 15.9399C12.4535 17.3805 11.7696 19.0913 11.57 20.89C11.5556 21.0213 11.5671 21.1542 11.604 21.2811C11.6409 21.4079 11.7025 21.5263 11.7851 21.6293C11.952 21.8375 12.1948 21.9708 12.46 22C12.7252 22.0292 12.9912 21.9518 13.1993 21.7849C13.4075 21.618 13.5408 21.3752 13.57 21.11C13.7896 19.1552 14.7217 17.3498 16.1882 16.0388C17.6547 14.7278 19.5529 14.003 21.52 14.003C23.4871 14.003 25.3852 14.7278 26.8518 16.0388C28.3183 17.3498 29.2504 19.1552 29.47 21.11C29.4972 21.3557 29.6144 21.5827 29.7991 21.747C29.9838 21.9114 30.2228 22.0015 30.47 22H30.58C30.8421 21.9698 31.0817 21.8373 31.2466 21.6313C31.4114 21.4252 31.4881 21.1624 31.46 20.9C31.2595 19.0962 30.5719 17.381 29.4708 15.9382C28.3698 14.4954 26.8969 13.3795 25.21 12.71ZM21.5 12C20.7089 12 19.9355 11.7654 19.2777 11.3259C18.6199 10.8864 18.1072 10.2616 17.8045 9.53074C17.5017 8.79983 17.4225 7.99557 17.5769 7.21964C17.7312 6.44372 18.1122 5.73099 18.6716 5.17158C19.231 4.61217 19.9437 4.2312 20.7196 4.07686C21.4956 3.92252 22.2998 4.00173 23.0307 4.30448C23.7616 4.60724 24.3863 5.11993 24.8259 5.77772C25.2654 6.43552 25.5 7.20888 25.5 8C25.5 9.06087 25.0786 10.0783 24.3284 10.8284C23.5783 11.5786 22.5609 12 21.5 12Z" fill="#6E6E6E"/>
<path d="M0.02 34L3.22 27H3.95L7.15 34H6.37L3.43 27.43H3.73L0.79 34H0.02ZM1.28 32.13L1.5 31.53H5.57L5.79 32.13H1.28ZM10.2891 34.05C9.76914 34.05 9.30247 33.9367 8.88914 33.71C8.48247 33.4767 8.16247 33.16 7.92914 32.76C7.69581 32.3533 7.57914 31.89 7.57914 31.37C7.57914 30.8433 7.69581 30.38 7.92914 29.98C8.16247 29.58 8.48247 29.2667 8.88914 29.04C9.30247 28.8133 9.76914 28.7 10.2891 28.7C10.7358 28.7 11.1391 28.7867 11.4991 28.96C11.8591 29.1333 12.1425 29.3933 12.3491 29.74L11.8191 30.1C11.6391 29.8333 11.4158 29.6367 11.1491 29.51C10.8825 29.3833 10.5925 29.32 10.2791 29.32C9.90581 29.32 9.56914 29.4067 9.26914 29.58C8.96914 29.7467 8.73247 29.9833 8.55914 30.29C8.38581 30.5967 8.29914 30.9567 8.29914 31.37C8.29914 31.7833 8.38581 32.1433 8.55914 32.45C8.73247 32.7567 8.96914 32.9967 9.26914 33.17C9.56914 33.3367 9.90581 33.42 10.2791 33.42C10.5925 33.42 10.8825 33.3567 11.1491 33.23C11.4158 33.1033 11.6391 32.91 11.8191 32.65L12.3491 33.01C12.1425 33.35 11.8591 33.61 11.4991 33.79C11.1391 33.9633 10.7358 34.05 10.2891 34.05ZM15.836 34.05C15.316 34.05 14.8493 33.9367 14.436 33.71C14.0293 33.4767 13.7093 33.16 13.476 32.76C13.2427 32.3533 13.126 31.89 13.126 31.37C13.126 30.8433 13.2427 30.38 13.476 29.98C13.7093 29.58 14.0293 29.2667 14.436 29.04C14.8493 28.8133 15.316 28.7 15.836 28.7C16.2827 28.7 16.686 28.7867 17.046 28.96C17.406 29.1333 17.6893 29.3933 17.896 29.74L17.366 30.1C17.186 29.8333 16.9627 29.6367 16.696 29.51C16.4293 29.3833 16.1393 29.32 15.826 29.32C15.4527 29.32 15.116 29.4067 14.816 29.58C14.516 29.7467 14.2793 29.9833 14.106 30.29C13.9327 30.5967 13.846 30.9567 13.846 31.37C13.846 31.7833 13.9327 32.1433 14.106 32.45C14.2793 32.7567 14.516 32.9967 14.816 33.17C15.116 33.3367 15.4527 33.42 15.826 33.42C16.1393 33.42 16.4293 33.3567 16.696 33.23C16.9627 33.1033 17.186 32.91 17.366 32.65L17.896 33.01C17.6893 33.35 17.406 33.61 17.046 33.79C16.686 33.9633 16.2827 34.05 15.836 34.05ZM21.3429 34.05C20.8362 34.05 20.3796 33.9367 19.9729 33.71C19.5729 33.4767 19.2562 33.16 19.0229 32.76C18.7896 32.3533 18.6729 31.89 18.6729 31.37C18.6729 30.8433 18.7896 30.38 19.0229 29.98C19.2562 29.58 19.5729 29.2667 19.9729 29.04C20.3729 28.8133 20.8296 28.7 21.3429 28.7C21.8629 28.7 22.3229 28.8133 22.7229 29.04C23.1296 29.2667 23.4462 29.58 23.6729 29.98C23.9062 30.38 24.0229 30.8433 24.0229 31.37C24.0229 31.89 23.9062 32.3533 23.6729 32.76C23.4462 33.16 23.1296 33.4767 22.7229 33.71C22.3162 33.9367 21.8562 34.05 21.3429 34.05ZM21.3429 33.42C21.7229 33.42 22.0596 33.3367 22.3529 33.17C22.6462 32.9967 22.8762 32.7567 23.0429 32.45C23.2162 32.1367 23.3029 31.7767 23.3029 31.37C23.3029 30.9567 23.2162 30.5967 23.0429 30.29C22.8762 29.9833 22.6462 29.7467 22.3529 29.58C22.0596 29.4067 21.7262 29.32 21.3529 29.32C20.9796 29.32 20.6462 29.4067 20.3529 29.58C20.0596 29.7467 19.8262 29.9833 19.6529 30.29C19.4796 30.5967 19.3929 30.9567 19.3929 31.37C19.3929 31.7767 19.4796 32.1367 19.6529 32.45C19.8262 32.7567 20.0596 32.9967 20.3529 33.17C20.6462 33.3367 20.9762 33.42 21.3429 33.42ZM27.6424 34.05C27.1958 34.05 26.8058 33.9667 26.4724 33.8C26.1391 33.6333 25.8791 33.3833 25.6924 33.05C25.5124 32.7167 25.4224 32.3 25.4224 31.8V28.75H26.1324V31.72C26.1324 32.28 26.2691 32.7033 26.5424 32.99C26.8224 33.27 27.2124 33.41 27.7124 33.41C28.0791 33.41 28.3958 33.3367 28.6624 33.19C28.9358 33.0367 29.1424 32.8167 29.2824 32.53C29.4291 32.2433 29.5024 31.9 29.5024 31.5V28.75H30.2124V34H29.5324V32.56L29.6424 32.82C29.4758 33.2067 29.2158 33.51 28.8624 33.73C28.5158 33.9433 28.1091 34.05 27.6424 34.05ZM34.8712 28.7C35.2978 28.7 35.6712 28.7833 35.9912 28.95C36.3178 29.11 36.5712 29.3567 36.7512 29.69C36.9378 30.0233 37.0312 30.4433 37.0312 30.95V34H36.3212V31.02C36.3212 30.4667 36.1812 30.05 35.9012 29.77C35.6278 29.4833 35.2412 29.34 34.7412 29.34C34.3678 29.34 34.0412 29.4167 33.7612 29.57C33.4878 29.7167 33.2745 29.9333 33.1212 30.22C32.9745 30.5 32.9012 30.84 32.9012 31.24V34H32.1912V28.75H32.8712V30.19L32.7612 29.92C32.9278 29.54 33.1945 29.2433 33.5612 29.03C33.9278 28.81 34.3645 28.7 34.8712 28.7ZM40.609 34.05C40.1157 34.05 39.7357 33.9167 39.469 33.65C39.2023 33.3833 39.069 33.0067 39.069 32.52V27.59H39.779V32.48C39.779 32.7867 39.8557 33.0233 40.009 33.19C40.169 33.3567 40.3957 33.44 40.689 33.44C41.0023 33.44 41.2623 33.35 41.469 33.17L41.719 33.68C41.579 33.8067 41.409 33.9 41.209 33.96C41.0157 34.02 40.8157 34.05 40.609 34.05ZM38.129 29.34V28.75H41.379V29.34H38.129Z" fill="#6E6E6E"/>
</svg>
