<svg width="48" height="48" viewBox="0 0 48 48" fill="none" xmlns="http://www.w3.org/2000/svg">
<path d="M16.92 25.42L28.24 36.72C28.426 36.9075 28.6472 37.0563 28.8909 37.1578C29.1346 37.2594 29.396 37.3116 29.66 37.3116C29.9241 37.3116 30.1855 37.2594 30.4292 37.1578C30.6729 37.0563 30.8941 36.9075 31.08 36.72C31.4525 36.3453 31.6616 35.8384 31.6616 35.31C31.6616 34.7817 31.4525 34.2748 31.08 33.9L21.18 23.9L31.08 14C31.4525 13.6253 31.6616 13.1184 31.6616 12.59C31.6616 12.0617 31.4525 11.5548 31.08 11.18C30.8948 10.9911 30.6739 10.8407 30.4302 10.7377C30.1864 10.6347 29.9247 10.5812 29.66 10.5801C29.3954 10.5812 29.1337 10.6347 28.8899 10.7377C28.6462 10.8407 28.4253 10.9911 28.24 11.18L16.92 22.48C16.717 22.6673 16.555 22.8946 16.4442 23.1476C16.3334 23.4006 16.2762 23.6738 16.2762 23.95C16.2762 24.2263 16.3334 24.4995 16.4442 24.7525C16.555 25.0055 16.717 25.2328 16.92 25.42Z" fill="black"/>
</svg>
