<svg width="60" height="36" viewBox="0 0 60 36" fill="none" xmlns="http://www.w3.org/2000/svg">
<path d="M37.9912 2.002C37.8599 2.00192 37.7298 2.02774 37.6084 2.07797C37.4871 2.1282 37.3768 2.20185 37.2839 2.29473C37.1911 2.3876 37.1174 2.49787 37.0672 2.61923C37.017 2.74059 36.9911 2.87066 36.9912 3.002V3.63872C36.1478 4.68442 35.0819 5.52891 33.871 6.11072C32.66 6.69252 31.3346 6.997 29.9912 7.002H23.9912C23.1958 7.00287 22.4333 7.31922 21.8708 7.88164C21.3084 8.44406 20.9921 9.20662 20.9912 10.002V12.002C20.9921 12.7974 21.3084 13.5599 21.8708 14.1224C22.4333 14.6848 23.1958 15.0011 23.9912 15.002H24.475L22.0723 20.6084C22.007 20.7605 21.9805 20.9264 21.9951 21.0912C22.0098 21.256 22.0651 21.4146 22.1562 21.5528C22.2473 21.691 22.3713 21.8043 22.5171 21.8827C22.6628 21.9611 22.8257 22.0021 22.9912 22.002H26.9912C27.187 22.0021 27.3784 21.9447 27.5418 21.8369C27.7052 21.7291 27.8333 21.5756 27.9102 21.3956L30.6339 15.04C31.8646 15.1304 33.0636 15.472 34.157 16.0439C35.2505 16.6158 36.215 17.4058 36.9912 18.3651V19.002C36.9912 19.2672 37.0966 19.5216 37.2841 19.7091C37.4716 19.8966 37.726 20.002 37.9912 20.002C38.2564 20.002 38.5108 19.8966 38.6983 19.7091C38.8859 19.5216 38.9912 19.2672 38.9912 19.002V3.002C38.9913 2.87066 38.9655 2.74059 38.9152 2.61923C38.865 2.49787 38.7914 2.3876 38.6985 2.29472C38.6056 2.20185 38.4953 2.12819 38.374 2.07796C38.2526 2.02774 38.1226 2.00192 37.9912 2.002ZM23.9912 13.002C23.726 13.0018 23.4718 12.8964 23.2843 12.7089C23.0968 12.5214 22.9914 12.2672 22.9912 12.002V10.002C22.9914 9.73684 23.0968 9.48259 23.2843 9.29509C23.4718 9.10759 23.726 9.00218 23.9912 9.002H24.9912V13.002H23.9912ZM26.332 20.002H24.5078L26.6504 15.002H28.4746L26.332 20.002ZM36.9912 15.5238C35.0195 13.8994 32.5459 13.0083 29.9912 13.0019H26.9912V9.00195H29.9912C32.5459 8.99542 35.0195 8.10411 36.9912 6.47961V15.5238Z" fill="white"/>
<path d="M4.18 34.06C3.65333 34.06 3.16667 33.9733 2.72 33.8C2.27333 33.62 1.88667 33.37 1.56 33.05C1.23333 32.73 0.976667 32.3533 0.79 31.92C0.61 31.4867 0.52 31.0133 0.52 30.5C0.52 29.9867 0.61 29.5133 0.79 29.08C0.976667 28.6467 1.23333 28.27 1.56 27.95C1.89333 27.63 2.28333 27.3833 2.73 27.21C3.17667 27.03 3.66333 26.94 4.19 26.94C4.69667 26.94 5.17333 27.0267 5.62 27.2C6.06667 27.3667 6.44333 27.62 6.75 27.96L6.28 28.43C5.99333 28.1367 5.67667 27.9267 5.33 27.8C4.98333 27.6667 4.61 27.6 4.21 27.6C3.79 27.6 3.4 27.6733 3.04 27.82C2.68 27.96 2.36667 28.1633 2.1 28.43C1.83333 28.69 1.62333 28.9967 1.47 29.35C1.32333 29.6967 1.25 30.08 1.25 30.5C1.25 30.92 1.32333 31.3067 1.47 31.66C1.62333 32.0067 1.83333 32.3133 2.1 32.58C2.36667 32.84 2.68 33.0433 3.04 33.19C3.4 33.33 3.79 33.4 4.21 33.4C4.61 33.4 4.98333 33.3333 5.33 33.2C5.67667 33.0667 5.99333 32.8533 6.28 32.56L6.75 33.03C6.44333 33.37 6.06667 33.6267 5.62 33.8C5.17333 33.9733 4.69333 34.06 4.18 34.06ZM10.0831 34.05C9.57646 34.05 9.11979 33.9367 8.71313 33.71C8.31313 33.4767 7.99646 33.16 7.76313 32.76C7.52979 32.3533 7.41313 31.89 7.41313 31.37C7.41313 30.8433 7.52979 30.38 7.76313 29.98C7.99646 29.58 8.31313 29.2667 8.71313 29.04C9.11313 28.8133 9.56979 28.7 10.0831 28.7C10.6031 28.7 11.0631 28.8133 11.4631 29.04C11.8698 29.2667 12.1865 29.58 12.4131 29.98C12.6465 30.38 12.7631 30.8433 12.7631 31.37C12.7631 31.89 12.6465 32.3533 12.4131 32.76C12.1865 33.16 11.8698 33.4767 11.4631 33.71C11.0565 33.9367 10.5965 34.05 10.0831 34.05ZM10.0831 33.42C10.4631 33.42 10.7998 33.3367 11.0931 33.17C11.3865 32.9967 11.6165 32.7567 11.7831 32.45C11.9565 32.1367 12.0431 31.7767 12.0431 31.37C12.0431 30.9567 11.9565 30.5967 11.7831 30.29C11.6165 29.9833 11.3865 29.7467 11.0931 29.58C10.7998 29.4067 10.4665 29.32 10.0931 29.32C9.71979 29.32 9.38646 29.4067 9.09313 29.58C8.79979 29.7467 8.56646 29.9833 8.39313 30.29C8.21979 30.5967 8.13313 30.9567 8.13313 31.37C8.13313 31.7767 8.21979 32.1367 8.39313 32.45C8.56646 32.7567 8.79979 32.9967 9.09313 33.17C9.38646 33.3367 9.71646 33.42 10.0831 33.42ZM20.7727 28.7C21.1993 28.7 21.5693 28.7833 21.8827 28.95C22.2027 29.11 22.4493 29.3567 22.6227 29.69C22.8027 30.0233 22.8927 30.4433 22.8927 30.95V34H22.1827V31.02C22.1827 30.4667 22.0493 30.05 21.7827 29.77C21.5227 29.4833 21.1527 29.34 20.6727 29.34C20.3127 29.34 19.9993 29.4167 19.7327 29.57C19.4727 29.7167 19.2693 29.9333 19.1227 30.22C18.9827 30.5 18.9127 30.84 18.9127 31.24V34H18.2027V31.02C18.2027 30.4667 18.0693 30.05 17.8027 29.77C17.536 29.4833 17.1627 29.34 16.6827 29.34C16.3293 29.34 16.0193 29.4167 15.7527 29.57C15.486 29.7167 15.2793 29.9333 15.1327 30.22C14.9927 30.5 14.9227 30.84 14.9227 31.24V34H14.2127V28.75H14.8927V30.17L14.7827 29.92C14.9427 29.54 15.1993 29.2433 15.5527 29.03C15.9127 28.81 16.336 28.7 16.8227 28.7C17.336 28.7 17.7727 28.83 18.1327 29.09C18.4927 29.3433 18.726 29.7267 18.8327 30.24L18.5527 30.13C18.706 29.7033 18.976 29.36 19.3627 29.1C19.756 28.8333 20.226 28.7 20.7727 28.7ZM31.3781 28.7C31.8048 28.7 32.1748 28.7833 32.4881 28.95C32.8081 29.11 33.0548 29.3567 33.2281 29.69C33.4081 30.0233 33.4981 30.4433 33.4981 30.95V34H32.7881V31.02C32.7881 30.4667 32.6548 30.05 32.3881 29.77C32.1281 29.4833 31.7581 29.34 31.2781 29.34C30.9181 29.34 30.6048 29.4167 30.3381 29.57C30.0781 29.7167 29.8748 29.9333 29.7281 30.22C29.5881 30.5 29.5181 30.84 29.5181 31.24V34H28.8081V31.02C28.8081 30.4667 28.6748 30.05 28.4081 29.77C28.1415 29.4833 27.7681 29.34 27.2881 29.34C26.9348 29.34 26.6248 29.4167 26.3581 29.57C26.0915 29.7167 25.8848 29.9333 25.7381 30.22C25.5981 30.5 25.5281 30.84 25.5281 31.24V34H24.8181V28.75H25.4981V30.17L25.3881 29.92C25.5481 29.54 25.8048 29.2433 26.1581 29.03C26.5181 28.81 26.9415 28.7 27.4281 28.7C27.9415 28.7 28.3781 28.83 28.7381 29.09C29.0981 29.3433 29.3315 29.7267 29.4381 30.24L29.1581 30.13C29.3115 29.7033 29.5815 29.36 29.9681 29.1C30.3615 28.8333 30.8315 28.7 31.3781 28.7ZM37.5936 34.05C37.1469 34.05 36.7569 33.9667 36.4236 33.8C36.0903 33.6333 35.8303 33.3833 35.6436 33.05C35.4636 32.7167 35.3736 32.3 35.3736 31.8V28.75H36.0836V31.72C36.0836 32.28 36.2203 32.7033 36.4936 32.99C36.7736 33.27 37.1636 33.41 37.6636 33.41C38.0303 33.41 38.3469 33.3367 38.6136 33.19C38.8869 33.0367 39.0936 32.8167 39.2336 32.53C39.3803 32.2433 39.4536 31.9 39.4536 31.5V28.75H40.1636V34H39.4836V32.56L39.5936 32.82C39.4269 33.2067 39.1669 33.51 38.8136 33.73C38.4669 33.9433 38.0603 34.05 37.5936 34.05ZM44.8223 28.7C45.249 28.7 45.6223 28.7833 45.9423 28.95C46.269 29.11 46.5223 29.3567 46.7023 29.69C46.889 30.0233 46.9823 30.4433 46.9823 30.95V34H46.2723V31.02C46.2723 30.4667 46.1323 30.05 45.8523 29.77C45.579 29.4833 45.1923 29.34 44.6923 29.34C44.319 29.34 43.9923 29.4167 43.7123 29.57C43.439 29.7167 43.2257 29.9333 43.0723 30.22C42.9257 30.5 42.8523 30.84 42.8523 31.24V34H42.1423V28.75H42.8223V30.19L42.7123 29.92C42.879 29.54 43.1457 29.2433 43.5123 29.03C43.879 28.81 44.3157 28.7 44.8223 28.7ZM48.9002 34V28.75H49.6102V34H48.9002ZM49.2602 27.59C49.1135 27.59 48.9902 27.54 48.8902 27.44C48.7902 27.34 48.7402 27.22 48.7402 27.08C48.7402 26.94 48.7902 26.8233 48.8902 26.73C48.9902 26.63 49.1135 26.58 49.2602 26.58C49.4068 26.58 49.5302 26.6267 49.6302 26.72C49.7302 26.8133 49.7802 26.93 49.7802 27.07C49.7802 27.2167 49.7302 27.34 49.6302 27.44C49.5368 27.54 49.4135 27.59 49.2602 27.59ZM53.2457 34.05C52.7524 34.05 52.3724 33.9167 52.1057 33.65C51.839 33.3833 51.7057 33.0067 51.7057 32.52V27.59H52.4157V32.48C52.4157 32.7867 52.4924 33.0233 52.6457 33.19C52.8057 33.3567 53.0324 33.44 53.3257 33.44C53.639 33.44 53.899 33.35 54.1057 33.17L54.3557 33.68C54.2157 33.8067 54.0457 33.9 53.8457 33.96C53.6524 34.02 53.4524 34.05 53.2457 34.05ZM50.7657 29.34V28.75H54.0157V29.34H50.7657ZM55.5905 35.99C55.3439 35.99 55.1072 35.95 54.8805 35.87C54.6605 35.79 54.4705 35.67 54.3105 35.51L54.6405 34.98C54.7739 35.1067 54.9172 35.2033 55.0705 35.27C55.2305 35.3433 55.4072 35.38 55.6005 35.38C55.8339 35.38 56.0339 35.3133 56.2005 35.18C56.3739 35.0533 56.5372 34.8267 56.6905 34.5L57.0305 33.73L57.1105 33.62L59.2705 28.75H59.9705L57.3405 34.63C57.1939 34.97 57.0305 35.24 56.8505 35.44C56.6772 35.64 56.4872 35.78 56.2805 35.86C56.0739 35.9467 55.8439 35.99 55.5905 35.99ZM56.9905 34.15L54.5705 28.75H55.3105L57.4505 33.57L56.9905 34.15Z" fill="white"/>
</svg>
