<svg width="25" height="25" viewBox="0 0 25 25" fill="none" xmlns="http://www.w3.org/2000/svg">
<path d="M12.2429 2.01352C10.9208 2.01352 9.61168 2.27392 8.39022 2.77987C7.16877 3.28581 6.05893 4.02738 5.12407 4.96224C3.23604 6.85028 2.17535 9.411 2.17535 12.0811C2.16655 14.4058 2.97149 16.6604 4.45062 18.4539L2.43711 20.4674C2.29741 20.6089 2.20278 20.7887 2.16515 20.984C2.12753 21.1793 2.14859 21.3814 2.22569 21.5647C2.30931 21.7459 2.44486 21.8981 2.61515 22.0021C2.78543 22.106 2.98277 22.157 3.18211 22.1487H12.2429C14.913 22.1487 17.4737 21.088 19.3618 19.1999C21.2498 17.3119 22.3105 14.7512 22.3105 12.0811C22.3105 9.411 21.2498 6.85028 19.3618 4.96224C17.4737 3.07421 14.913 2.01352 12.2429 2.01352ZM12.2429 20.1351H5.60839L6.54467 19.1989C6.73218 19.0102 6.83743 18.7551 6.83743 18.4891C6.83743 18.2231 6.73218 17.968 6.54467 17.7793C5.22641 16.4625 4.40549 14.7294 4.22177 12.8752C4.03806 11.021 4.50291 9.16049 5.53714 7.61061C6.57136 6.06072 8.11098 4.91737 9.89366 4.37534C11.6764 3.83332 13.5918 3.92616 15.3137 4.63805C17.0357 5.34993 18.4575 6.63682 19.337 8.27946C20.2165 9.9221 20.4992 11.8189 20.137 13.6466C19.7749 15.4743 18.7902 17.1199 17.3507 18.3031C15.9113 19.4862 14.1062 20.1337 12.2429 20.1351Z" fill="#323232"/>
</svg>
