<svg width="32" height="36" viewBox="0 0 32 36" fill="none" xmlns="http://www.w3.org/2000/svg">
<path d="M24.0001 8.00001L18.0001 2.74001C17.4501 2.24805 16.738 1.97607 16.0001 1.97607C15.2622 1.97607 14.5501 2.24805 14.0001 2.74001L8.00009 8.00001C7.68246 8.28408 7.42899 8.63256 7.25657 9.02225C7.08414 9.41194 6.99671 9.83389 7.00009 10.26V19C7.00009 19.7957 7.31617 20.5587 7.87877 21.1213C8.44138 21.6839 9.20445 22 10.0001 22H22.0001C22.7957 22 23.5588 21.6839 24.1214 21.1213C24.684 20.5587 25.0001 19.7957 25.0001 19V10.25C25.0021 9.82557 24.9139 9.40555 24.7416 9.01769C24.5692 8.62983 24.3165 8.28296 24.0001 8.00001ZM18.0001 20H14.0001V15C14.0001 14.7348 14.1055 14.4804 14.293 14.2929C14.4805 14.1054 14.7349 14 15.0001 14H17.0001C17.2653 14 17.5197 14.1054 17.7072 14.2929C17.8947 14.4804 18.0001 14.7348 18.0001 15V20ZM23.0001 19C23.0001 19.2652 22.8947 19.5196 22.7072 19.7071C22.5197 19.8946 22.2653 20 22.0001 20H20.0001V15C20.0001 14.2044 19.684 13.4413 19.1214 12.8787C18.5588 12.3161 17.7957 12 17.0001 12H15.0001C14.2044 12 13.4414 12.3161 12.8788 12.8787C12.3162 13.4413 12.0001 14.2044 12.0001 15V20H10.0001C9.73488 20 9.48052 19.8946 9.29299 19.7071C9.10545 19.5196 9.00009 19.2652 9.00009 19V10.25C9.00027 10.108 9.03069 9.9677 9.08931 9.83839C9.14794 9.70907 9.23343 9.59372 9.3401 9.50001L15.3401 4.25001C15.5226 4.08969 15.7572 4.00127 16.0001 4.00127C16.243 4.00127 16.4776 4.08969 16.6601 4.25001L22.6601 9.50001C22.7668 9.59372 22.8523 9.70907 22.9109 9.83839C22.9695 9.9677 22.9999 10.108 23.0001 10.25V19Z" fill="#6E6E6E"/>
<path d="M6.26 27H6.99V34H6.26V27ZM1.88 34H1.14V27H1.88V34ZM6.33 30.77H1.8V30.12H6.33V30.77ZM11.2648 34.05C10.7581 34.05 10.3014 33.9367 9.89477 33.71C9.49477 33.4767 9.1781 33.16 8.94477 32.76C8.71143 32.3533 8.59477 31.89 8.59477 31.37C8.59477 30.8433 8.71143 30.38 8.94477 29.98C9.1781 29.58 9.49477 29.2667 9.89477 29.04C10.2948 28.8133 10.7514 28.7 11.2648 28.7C11.7848 28.7 12.2448 28.8133 12.6448 29.04C13.0514 29.2667 13.3681 29.58 13.5948 29.98C13.8281 30.38 13.9448 30.8433 13.9448 31.37C13.9448 31.89 13.8281 32.3533 13.5948 32.76C13.3681 33.16 13.0514 33.4767 12.6448 33.71C12.2381 33.9367 11.7781 34.05 11.2648 34.05ZM11.2648 33.42C11.6448 33.42 11.9814 33.3367 12.2748 33.17C12.5681 32.9967 12.7981 32.7567 12.9648 32.45C13.1381 32.1367 13.2248 31.7767 13.2248 31.37C13.2248 30.9567 13.1381 30.5967 12.9648 30.29C12.7981 29.9833 12.5681 29.7467 12.2748 29.58C11.9814 29.4067 11.6481 29.32 11.2748 29.32C10.9014 29.32 10.5681 29.4067 10.2748 29.58C9.98143 29.7467 9.7481 29.9833 9.57477 30.29C9.40143 30.5967 9.31477 30.9567 9.31477 31.37C9.31477 31.7767 9.40143 32.1367 9.57477 32.45C9.7481 32.7567 9.98143 32.9967 10.2748 33.17C10.5681 33.3367 10.8981 33.42 11.2648 33.42ZM21.9543 28.7C22.381 28.7 22.751 28.7833 23.0643 28.95C23.3843 29.11 23.631 29.3567 23.8043 29.69C23.9843 30.0233 24.0743 30.4433 24.0743 30.95V34H23.3643V31.02C23.3643 30.4667 23.231 30.05 22.9643 29.77C22.7043 29.4833 22.3343 29.34 21.8543 29.34C21.4943 29.34 21.181 29.4167 20.9143 29.57C20.6543 29.7167 20.451 29.9333 20.3043 30.22C20.1643 30.5 20.0943 30.84 20.0943 31.24V34H19.3843V31.02C19.3843 30.4667 19.251 30.05 18.9843 29.77C18.7176 29.4833 18.3443 29.34 17.8643 29.34C17.511 29.34 17.201 29.4167 16.9343 29.57C16.6676 29.7167 16.461 29.9333 16.3143 30.22C16.1743 30.5 16.1043 30.84 16.1043 31.24V34H15.3943V28.75H16.0743V30.17L15.9643 29.92C16.1243 29.54 16.381 29.2433 16.7343 29.03C17.0943 28.81 17.5176 28.7 18.0043 28.7C18.5176 28.7 18.9543 28.83 19.3143 29.09C19.6743 29.3433 19.9076 29.7267 20.0143 30.24L19.7343 30.13C19.8876 29.7033 20.1576 29.36 20.5443 29.1C20.9376 28.8333 21.4076 28.7 21.9543 28.7ZM28.2298 34.05C27.6831 34.05 27.2031 33.9367 26.7898 33.71C26.3764 33.4767 26.0531 33.16 25.8198 32.76C25.5864 32.3533 25.4698 31.89 25.4698 31.37C25.4698 30.85 25.5798 30.39 25.7998 29.99C26.0264 29.59 26.3331 29.2767 26.7198 29.05C27.1131 28.8167 27.5531 28.7 28.0398 28.7C28.5331 28.7 28.9698 28.8133 29.3498 29.04C29.7364 29.26 30.0398 29.5733 30.2598 29.98C30.4798 30.38 30.5898 30.8433 30.5898 31.37C30.5898 31.4033 30.5864 31.44 30.5798 31.48C30.5798 31.5133 30.5798 31.55 30.5798 31.59H26.0098V31.06H30.1998L29.9198 31.27C29.9198 30.89 29.8364 30.5533 29.6698 30.26C29.5098 29.96 29.2898 29.7267 29.0098 29.56C28.7298 29.3933 28.4064 29.31 28.0398 29.31C27.6798 29.31 27.3564 29.3933 27.0698 29.56C26.7831 29.7267 26.5598 29.96 26.3998 30.26C26.2398 30.56 26.1598 30.9033 26.1598 31.29V31.4C26.1598 31.8 26.2464 32.1533 26.4198 32.46C26.5998 32.76 26.8464 32.9967 27.1598 33.17C27.4798 33.3367 27.8431 33.42 28.2498 33.42C28.5698 33.42 28.8664 33.3633 29.1398 33.25C29.4198 33.1367 29.6598 32.9633 29.8598 32.73L30.2598 33.19C30.0264 33.47 29.7331 33.6833 29.3798 33.83C29.0331 33.9767 28.6498 34.05 28.2298 34.05Z" fill="#6E6E6E"/>
</svg>
