<svg width="25" height="25" viewBox="0 0 25 25" fill="none" xmlns="http://www.w3.org/2000/svg">
<path d="M21.4441 10.1481C21.1612 9.80847 20.8072 9.53507 20.4071 9.34719C20.007 9.15932 19.5705 9.06156 19.1285 9.0608H14.5377L15.1015 7.62114C15.336 6.99079 15.4141 6.31296 15.3291 5.6458C15.2441 4.97864 14.9985 4.34206 14.6134 3.79066C14.2283 3.23926 13.7152 2.78951 13.1181 2.47998C12.521 2.17045 11.8578 2.01038 11.1852 2.0135C10.9916 2.01391 10.8021 2.07016 10.6396 2.17551C10.4771 2.28087 10.3485 2.43085 10.2691 2.60749L7.39982 9.0608H5.03394C4.23292 9.0608 3.4647 9.37901 2.89829 9.94542C2.33188 10.5118 2.01367 11.28 2.01367 12.0811V19.1284C2.01367 19.9294 2.33188 20.6976 2.89829 21.264C3.4647 21.8304 4.23292 22.1486 5.03394 22.1486H17.85C18.5565 22.1484 19.2406 21.9005 19.7833 21.448C20.3259 20.9955 20.6927 20.367 20.8199 19.672L22.0985 12.6247C22.1775 12.1892 22.1599 11.7416 22.0468 11.3136C21.9338 10.8856 21.728 10.4877 21.4441 10.1481ZM7.04746 20.1351H5.03394C4.76693 20.1351 4.51086 20.0291 4.32206 19.8403C4.13325 19.6514 4.02719 19.3954 4.02719 19.1284V12.0811C4.02719 11.8141 4.13325 11.558 4.32206 11.3692C4.51086 11.1804 4.76693 11.0743 5.03394 11.0743H7.04746V20.1351ZM20.1353 12.2623L18.8567 19.3096C18.8138 19.5441 18.6891 19.7558 18.5047 19.907C18.3204 20.0582 18.0883 20.139 17.85 20.1351H9.06097V10.279L11.7993 4.11762C12.0812 4.1998 12.343 4.33952 12.5682 4.52796C12.7933 4.7164 12.977 4.94947 13.1075 5.21247C13.2381 5.47546 13.3127 5.76266 13.3267 6.05593C13.3406 6.34921 13.2936 6.6422 13.1887 6.91641L12.6551 8.35607C12.5414 8.66037 12.503 8.98766 12.5432 9.31C12.5834 9.63235 12.701 9.94018 12.886 10.2072C13.0709 10.4743 13.3178 10.6926 13.6054 10.8436C13.893 10.9946 14.2129 11.0737 14.5377 11.0743H19.1285C19.2764 11.0741 19.4226 11.1064 19.5566 11.1691C19.6905 11.2317 19.8091 11.3231 19.9037 11.4367C20.0007 11.5488 20.0718 11.6809 20.1118 11.8236C20.1518 11.9663 20.1598 12.1161 20.1353 12.2623Z" fill="#323232"/>
</svg>
