<svg width="10" height="10" viewBox="0 0 10 10" fill="none" xmlns="http://www.w3.org/2000/svg">
<path d="M7.49989 1.86665C6.83685 1.20361 5.93757 0.831116 4.99989 0.831116C4.06221 0.831116 3.16293 1.20361 2.49989 1.86665C1.83685 2.52969 1.46436 3.42897 1.46436 4.36665C1.46436 5.30433 1.83685 6.20361 2.49989 6.86665L4.69572 9.06665C4.73446 9.1057 4.78054 9.1367 4.83132 9.15785C4.88209 9.17901 4.93655 9.1899 4.99156 9.1899C5.04656 9.1899 5.10102 9.17901 5.1518 9.15785C5.20257 9.1367 5.24865 9.1057 5.28739 9.06665L7.49989 6.84582C8.16016 6.18553 8.5311 5.29001 8.5311 4.35623C8.5311 3.42246 8.16016 2.52693 7.49989 1.86665ZM6.90406 6.24998L4.99989 8.16248L3.09572 6.24998C2.71953 5.87345 2.46342 5.39384 2.35976 4.87177C2.2561 4.34971 2.30955 3.80863 2.51335 3.31693C2.71715 2.82524 3.06215 2.405 3.50474 2.10935C3.94732 1.81369 4.46763 1.65589 4.99989 1.65589C5.53215 1.65589 6.05245 1.81369 6.49504 2.10935C6.93763 2.405 7.28263 2.82524 7.48643 3.31693C7.69023 3.80863 7.74368 4.34971 7.64002 4.87177C7.53636 5.39384 7.28025 5.87345 6.90406 6.24998ZM3.74989 3.08748C3.41352 3.42489 3.22464 3.88189 3.22464 4.35832C3.22464 4.83475 3.41352 5.29174 3.74989 5.62915C3.99979 5.87948 4.31805 6.05043 4.66474 6.12057C5.01144 6.1907 5.37112 6.15689 5.69867 6.02338C6.02622 5.88987 6.30705 5.6626 6.50592 5.37009C6.7048 5.07757 6.81286 4.73285 6.81656 4.37915C6.81843 4.14298 6.77294 3.90884 6.68277 3.69056C6.59259 3.47228 6.45957 3.2743 6.29156 3.10832C6.12642 2.93939 5.92951 2.80479 5.71215 2.71226C5.49479 2.61973 5.26128 2.5711 5.02506 2.56916C4.78883 2.56723 4.55456 2.61202 4.33571 2.70098C4.11687 2.78993 3.91777 2.92129 3.74989 3.08748ZM5.70406 5.03748C5.54616 5.19779 5.33748 5.29828 5.11369 5.32175C4.88991 5.34523 4.66492 5.29025 4.47718 5.1662C4.28945 5.04216 4.15064 4.85675 4.08448 4.64168C4.01831 4.42662 4.02891 4.19525 4.11445 3.98713C4.2 3.77901 4.35518 3.60707 4.55347 3.50071C4.75175 3.39434 4.98083 3.36015 5.20153 3.40399C5.42223 3.44783 5.62085 3.56697 5.76343 3.74104C5.90602 3.91511 5.98371 4.1333 5.98322 4.35832C5.97716 4.61551 5.86926 4.85979 5.68322 5.03748H5.70406Z" fill="#AAAAAA"/>
</svg>
