<svg width="8" height="11" viewBox="0 0 8 11" fill="none" xmlns="http://www.w3.org/2000/svg">
<path d="M4 7C4.53043 7 5.03914 6.78929 5.41421 6.41421C5.78929 6.03914 6 5.53043 6 5V2C6 1.46957 5.78929 0.960859 5.41421 0.585786C5.03914 0.210714 4.53043 0 4 0C3.46957 0 2.96086 0.210714 2.58579 0.585786C2.21071 0.960859 2 1.46957 2 2V5C2 5.53043 2.21071 6.03914 2.58579 6.41421C2.96086 6.78929 3.46957 7 4 7ZM3 2C3 1.73478 3.10536 1.48043 3.29289 1.29289C3.48043 1.10536 3.73478 1 4 1C4.26522 1 4.51957 1.10536 4.70711 1.29289C4.89464 1.48043 5 1.73478 5 2V5C5 5.26522 4.89464 5.51957 4.70711 5.70711C4.51957 5.89464 4.26522 6 4 6C3.73478 6 3.48043 5.89464 3.29289 5.70711C3.10536 5.51957 3 5.26522 3 5V2ZM8 5C8 4.86739 7.94732 4.74021 7.85355 4.64645C7.75979 4.55268 7.63261 4.5 7.5 4.5C7.36739 4.5 7.24021 4.55268 7.14645 4.64645C7.05268 4.74021 7 4.86739 7 5C7 5.79565 6.68393 6.55871 6.12132 7.12132C5.55871 7.68393 4.79565 8 4 8C3.20435 8 2.44129 7.68393 1.87868 7.12132C1.31607 6.55871 1 5.79565 1 5C1 4.86739 0.947321 4.74021 0.853553 4.64645C0.759785 4.55268 0.632608 4.5 0.5 4.5C0.367392 4.5 0.240215 4.55268 0.146447 4.64645C0.0526785 4.74021 0 4.86739 0 5C0.000882896 5.97365 0.356861 6.91354 1.0012 7.64349C1.64554 8.37343 2.53399 8.8433 3.5 8.965V10H2.5C2.36739 10 2.24021 10.0527 2.14645 10.1464C2.05268 10.2402 2 10.3674 2 10.5C2 10.6326 2.05268 10.7598 2.14645 10.8536C2.24021 10.9473 2.36739 11 2.5 11H5.5C5.63261 11 5.75979 10.9473 5.85355 10.8536C5.94732 10.7598 6 10.6326 6 10.5C6 10.3674 5.94732 10.2402 5.85355 10.1464C5.75979 10.0527 5.63261 10 5.5 10H4.5V8.965C5.46601 8.8433 6.35446 8.37343 6.9988 7.64349C7.64314 6.91354 7.99912 5.97365 8 5Z" fill="white"/>
</svg>
