<svg width="28" height="36" viewBox="0 0 28 36" fill="none" xmlns="http://www.w3.org/2000/svg">
<path d="M23.1701 2.06C22.4533 1.93653 21.7274 1.87298 21.0001 1.87C18.5184 1.86796 16.0886 2.57957 14.0001 3.92C11.9062 2.59717 9.47674 1.90303 7.00008 1.92C6.27273 1.92298 5.54689 1.98653 4.83008 2.11C4.59529 2.15048 4.38267 2.27346 4.2305 2.45679C4.07833 2.64013 3.99662 2.87177 4.00008 3.11V15.11C3.99794 15.2569 4.02821 15.4025 4.08873 15.5364C4.14926 15.6703 4.23855 15.7893 4.35026 15.8847C4.46197 15.9802 4.59334 16.0499 4.73504 16.0888C4.87674 16.1278 5.02528 16.135 5.17008 16.11C6.6031 15.8619 8.07129 15.9031 9.48815 16.2311C10.905 16.5591 12.2419 17.1674 13.4201 18.02L13.5401 18.09H13.6501C13.761 18.1362 13.8799 18.16 14.0001 18.16C14.1202 18.16 14.2392 18.1362 14.3501 18.09H14.4601L14.5801 18.02C15.75 17.1483 17.0831 16.5203 18.5002 16.1734C19.9174 15.8264 21.3897 15.7674 22.8301 16C22.9749 16.025 23.1234 16.0178 23.2651 15.9788C23.4068 15.9399 23.5382 15.8702 23.6499 15.7747C23.7616 15.6793 23.8509 15.5603 23.9114 15.4264C23.972 15.2925 24.0022 15.1469 24.0001 15V3C23.9897 2.77215 23.9017 2.55471 23.7507 2.38374C23.5998 2.21276 23.3949 2.09854 23.1701 2.06ZM13.0001 15.35C11.15 14.3767 9.0906 13.8687 7.00008 13.87C6.67008 13.87 6.34008 13.87 6.00008 13.87V3.87C6.33314 3.8508 6.66703 3.8508 7.00008 3.87C9.13347 3.86764 11.2203 4.49369 13.0001 5.67V15.35ZM22.0001 13.91C21.6601 13.91 21.3301 13.91 21.0001 13.91C18.9096 13.9087 16.8502 14.4167 15.0001 15.39V5.67C16.7799 4.49369 18.8667 3.86764 21.0001 3.87C21.3331 3.8508 21.667 3.8508 22.0001 3.87V13.91ZM23.1701 18.06C22.4533 17.9365 21.7274 17.873 21.0001 17.87C18.5184 17.868 16.0886 18.5796 14.0001 19.92C11.9116 18.5796 9.48172 17.868 7.00008 17.87C6.27273 17.873 5.54689 17.9365 4.83008 18.06C4.69991 18.0807 4.57511 18.1268 4.46285 18.1959C4.35059 18.265 4.25309 18.3555 4.17595 18.4624C4.09882 18.5693 4.04357 18.6903 4.01339 18.8186C3.98321 18.9469 3.97869 19.0799 4.00008 19.21C4.0509 19.4697 4.20257 19.6986 4.42188 19.8467C4.64118 19.9948 4.91022 20.0499 5.17008 20C6.6031 19.7519 8.07129 19.7931 9.48815 20.1211C10.905 20.4491 12.2419 21.0574 13.4201 21.91C13.5894 22.0306 13.7922 22.0954 14.0001 22.0954C14.208 22.0954 14.4107 22.0306 14.5801 21.91C15.7583 21.0574 17.0952 20.4491 18.512 20.1211C19.9289 19.7931 21.3971 19.7519 22.8301 20C23.0899 20.0499 23.359 19.9948 23.5783 19.8467C23.7976 19.6986 23.9493 19.4697 24.0001 19.21C24.0215 19.0799 24.017 18.9469 23.9868 18.8186C23.9566 18.6903 23.9014 18.5693 23.8242 18.4624C23.7471 18.3555 23.6496 18.265 23.5373 18.1959C23.4251 18.1268 23.3003 18.0807 23.1701 18.06Z" fill="white"/>
<path d="M1.14 34V27H1.75L6.58 33.08H6.26V27H6.99V34H6.38L1.56 27.92H1.88V34H1.14ZM11.3548 34.05C10.8081 34.05 10.3281 33.9367 9.91477 33.71C9.50143 33.4767 9.1781 33.16 8.94477 32.76C8.71143 32.3533 8.59477 31.89 8.59477 31.37C8.59477 30.85 8.70477 30.39 8.92477 29.99C9.15143 29.59 9.4581 29.2767 9.84477 29.05C10.2381 28.8167 10.6781 28.7 11.1648 28.7C11.6581 28.7 12.0948 28.8133 12.4748 29.04C12.8614 29.26 13.1648 29.5733 13.3848 29.98C13.6048 30.38 13.7148 30.8433 13.7148 31.37C13.7148 31.4033 13.7114 31.44 13.7048 31.48C13.7048 31.5133 13.7048 31.55 13.7048 31.59H9.13477V31.06H13.3248L13.0448 31.27C13.0448 30.89 12.9614 30.5533 12.7948 30.26C12.6348 29.96 12.4148 29.7267 12.1348 29.56C11.8548 29.3933 11.5314 29.31 11.1648 29.31C10.8048 29.31 10.4814 29.3933 10.1948 29.56C9.9081 29.7267 9.68477 29.96 9.52477 30.26C9.36477 30.56 9.28477 30.9033 9.28477 31.29V31.4C9.28477 31.8 9.37143 32.1533 9.54477 32.46C9.72477 32.76 9.97143 32.9967 10.2848 33.17C10.6048 33.3367 10.9681 33.42 11.3748 33.42C11.6948 33.42 11.9914 33.3633 12.2648 33.25C12.5448 33.1367 12.7848 32.9633 12.9848 32.73L13.3848 33.19C13.1514 33.47 12.8581 33.6833 12.5048 33.83C12.1581 33.9767 11.7748 34.05 11.3548 34.05ZM16.1323 34L14.1523 28.75H14.8323L16.6323 33.62H16.3223L18.1723 28.75H18.7823L20.6123 33.62H20.3023L22.1323 28.75H22.7823L20.7923 34H20.1223L18.3623 29.42H18.5723L16.8023 34H16.1323ZM25.2027 34.05C24.7694 34.05 24.3594 33.99 23.9727 33.87C23.5861 33.7433 23.2827 33.5867 23.0627 33.4L23.3827 32.84C23.5961 33 23.8694 33.14 24.2027 33.26C24.5361 33.3733 24.8861 33.43 25.2527 33.43C25.7527 33.43 26.1127 33.3533 26.3327 33.2C26.5527 33.04 26.6627 32.83 26.6627 32.57C26.6627 32.3767 26.5994 32.2267 26.4727 32.12C26.3527 32.0067 26.1927 31.9233 25.9927 31.87C25.7927 31.81 25.5694 31.76 25.3227 31.72C25.0761 31.68 24.8294 31.6333 24.5827 31.58C24.3427 31.5267 24.1227 31.45 23.9227 31.35C23.7227 31.2433 23.5594 31.1 23.4327 30.92C23.3127 30.74 23.2527 30.5 23.2527 30.2C23.2527 29.9133 23.3327 29.6567 23.4927 29.43C23.6527 29.2033 23.8861 29.0267 24.1927 28.9C24.5061 28.7667 24.8861 28.7 25.3327 28.7C25.6727 28.7 26.0127 28.7467 26.3527 28.84C26.6927 28.9267 26.9727 29.0433 27.1927 29.19L26.8827 29.76C26.6494 29.6 26.3994 29.4867 26.1327 29.42C25.8661 29.3467 25.5994 29.31 25.3327 29.31C24.8594 29.31 24.5094 29.3933 24.2827 29.56C24.0627 29.72 23.9527 29.9267 23.9527 30.18C23.9527 30.38 24.0127 30.5367 24.1327 30.65C24.2594 30.7633 24.4227 30.8533 24.6227 30.92C24.8294 30.98 25.0527 31.03 25.2927 31.07C25.5394 31.11 25.7827 31.16 26.0227 31.22C26.2694 31.2733 26.4927 31.35 26.6927 31.45C26.8994 31.5433 27.0627 31.68 27.1827 31.86C27.3094 32.0333 27.3727 32.2633 27.3727 32.55C27.3727 32.8567 27.2861 33.1233 27.1127 33.35C26.9461 33.57 26.6994 33.7433 26.3727 33.87C26.0527 33.99 25.6627 34.05 25.2027 34.05Z" fill="white"/>
</svg>
