<svg width="10" height="10" viewBox="0 0 10 10" fill="none" xmlns="http://www.w3.org/2000/svg">
<path d="M9.13348 4.83335C8.29182 2.87919 6.70848 1.66669 5.00015 1.66669C3.29182 1.66669 1.70848 2.87919 0.866817 4.83335C0.843874 4.88592 0.832031 4.94266 0.832031 5.00002C0.832031 5.05738 0.843874 5.11412 0.866817 5.16669C1.70848 7.12085 3.29182 8.33335 5.00015 8.33335C6.70848 8.33335 8.29182 7.12085 9.13348 5.16669C9.15643 5.11412 9.16827 5.05738 9.16827 5.00002C9.16827 4.94266 9.15643 4.88592 9.13348 4.83335ZM5.00015 7.50002C3.67515 7.50002 2.42932 6.54585 1.70848 5.00002C2.42932 3.45419 3.67515 2.50002 5.00015 2.50002C6.32515 2.50002 7.57098 3.45419 8.29182 5.00002C7.57098 6.54585 6.32515 7.50002 5.00015 7.50002ZM5.00015 3.33335C4.67051 3.33335 4.34828 3.4311 4.0742 3.61424C3.80012 3.79737 3.5865 4.05767 3.46035 4.36221C3.3342 4.66676 3.3012 5.00187 3.36551 5.32517C3.42982 5.64847 3.58855 5.94544 3.82164 6.17853C4.05473 6.41162 4.3517 6.57035 4.675 6.63466C4.9983 6.69897 5.33341 6.66597 5.63796 6.53982C5.9425 6.41367 6.2028 6.20005 6.38593 5.92597C6.56907 5.65189 6.66682 5.32966 6.66682 5.00002C6.66682 4.55799 6.49122 4.13407 6.17866 3.82151C5.8661 3.50895 5.44218 3.33335 5.00015 3.33335ZM5.00015 5.83335C4.83533 5.83335 4.67422 5.78448 4.53717 5.69291C4.40013 5.60134 4.29332 5.47119 4.23025 5.31892C4.16718 5.16665 4.15067 4.9991 4.18283 4.83745C4.21498 4.67579 4.29435 4.52731 4.41089 4.41076C4.52744 4.29422 4.67592 4.21485 4.83757 4.1827C4.99923 4.15054 5.16678 4.16705 5.31905 4.23012C5.47132 4.29319 5.60147 4.4 5.69304 4.53705C5.78461 4.67409 5.83348 4.8352 5.83348 5.00002C5.83348 5.22103 5.74569 5.433 5.58941 5.58928C5.43313 5.74556 5.22116 5.83335 5.00015 5.83335Z" fill="#AAAAAA"/>
</svg>
