<svg width="21" height="22" viewBox="0 0 21 22" fill="none" xmlns="http://www.w3.org/2000/svg">
<path d="M16.4462 13.0946C15.8514 13.0985 15.2648 13.2342 14.7287 13.4918C14.1925 13.7494 13.7201 14.1226 13.3454 14.5846L8.21092 12.2187C8.45233 11.4795 8.45233 10.6827 8.21092 9.94345L13.3454 7.57757C13.9511 8.30844 14.7955 8.80186 15.7295 8.97076C16.6636 9.13965 17.6273 8.97316 18.4506 8.50067C19.2739 8.02817 19.9038 7.28005 20.2291 6.38833C20.5545 5.49661 20.5544 4.51862 20.2289 3.62696C19.9034 2.7353 19.2733 1.98729 18.45 1.51495C17.6266 1.04261 16.6629 0.876289 15.7288 1.04535C14.7948 1.21442 13.9505 1.708 13.3449 2.43898C12.7394 3.16996 12.4115 4.09135 12.4192 5.04054C12.4222 5.28038 12.4458 5.51953 12.4896 5.75534L7.17396 8.20176C6.60724 7.64762 5.88959 7.27304 5.11092 7.12496C4.33226 6.97688 3.52721 7.06188 2.79663 7.3693C2.06606 7.67673 1.44246 8.19292 1.00395 8.85319C0.565448 9.51347 0.331543 10.2885 0.331543 11.0811C0.331543 11.8737 0.565448 12.6487 1.00395 13.309C1.44246 13.9692 2.06606 14.4854 2.79663 14.7929C3.52721 15.1003 4.33226 15.1853 5.11092 15.0372C5.88959 14.8891 6.60724 14.5145 7.17396 13.9604L12.4896 16.4068C12.4458 16.6426 12.4222 16.8818 12.4192 17.1216C12.4192 17.9181 12.6553 18.6967 13.0978 19.3589C13.5403 20.0212 14.1693 20.5373 14.9051 20.8421C15.641 21.1469 16.4507 21.2267 17.2318 21.0713C18.013 20.9159 18.7305 20.5324 19.2937 19.9692C19.8569 19.406 20.2405 18.6884 20.3958 17.9073C20.5512 17.1261 20.4715 16.3164 20.1667 15.5805C19.8619 14.8447 19.3457 14.2158 18.6835 13.7733C18.0212 13.3308 17.2427 13.0946 16.4462 13.0946ZM16.4462 3.02703C16.8444 3.02703 17.2337 3.14512 17.5648 3.36637C17.896 3.58762 18.154 3.90208 18.3064 4.27C18.4588 4.63793 18.4987 5.04278 18.421 5.43336C18.3433 5.82394 18.1516 6.18272 17.87 6.46431C17.5884 6.74591 17.2296 6.93768 16.839 7.01537C16.4484 7.09306 16.0436 7.05318 15.6757 6.90079C15.3077 6.74839 14.9933 6.49031 14.772 6.15919C14.5508 5.82807 14.4327 5.43878 14.4327 5.04054C14.4327 4.50653 14.6448 3.99438 15.0224 3.61677C15.4 3.23917 15.9122 3.02703 16.4462 3.02703ZM4.36511 13.0946C3.96688 13.0946 3.57758 12.9765 3.24646 12.7553C2.91534 12.534 2.65727 12.2195 2.50487 11.8516C2.35247 11.4837 2.3126 11.0788 2.39029 10.6883C2.46798 10.2977 2.65975 9.93891 2.94134 9.65731C3.22294 9.37572 3.58171 9.18395 3.97229 9.10626C4.36288 9.02857 4.76773 9.06844 5.13565 9.22084C5.50357 9.37324 5.81804 9.63132 6.03929 9.96244C6.26053 10.2936 6.37862 10.6828 6.37862 11.0811C6.37862 11.6151 6.16649 12.1272 5.78888 12.5049C5.41127 12.8825 4.89913 13.0946 4.36511 13.0946ZM16.4462 19.1351C16.048 19.1351 15.6587 19.017 15.3275 18.7958C14.9964 18.5746 14.7383 18.2601 14.5859 17.8922C14.4335 17.5242 14.3937 17.1194 14.4714 16.7288C14.5491 16.3382 14.7408 15.9794 15.0224 15.6979C15.304 15.4163 15.6628 15.2245 16.0534 15.1468C16.444 15.0691 16.8488 15.109 17.2167 15.2614C17.5847 15.4138 17.8991 15.6719 18.1204 16.003C18.3416 16.3341 18.4597 16.7234 18.4597 17.1216C18.4597 17.6556 18.2476 18.1678 17.87 18.5454C17.4924 18.923 16.9802 19.1351 16.4462 19.1351Z" fill="#323232"/>
</svg>
