<svg width="10" height="10" viewBox="0 0 10 10" fill="none" xmlns="http://www.w3.org/2000/svg">
<path d="M4.58317 0.833313C3.75908 0.833313 2.9535 1.07768 2.2683 1.53552C1.58309 1.99336 1.04904 2.64411 0.733674 3.40547C0.418309 4.16682 0.335795 5.0046 0.496567 5.81286C0.657339 6.62111 1.05418 7.36354 1.63689 7.94626C2.21961 8.52898 2.96204 8.92581 3.7703 9.08659C4.57855 9.24736 5.41633 9.16484 6.17769 8.84948C6.93905 8.53411 7.58979 8.00006 8.04763 7.31486C8.50547 6.62965 8.74984 5.82407 8.74984 4.99998C8.74984 4.45281 8.64207 3.91099 8.43267 3.40547C8.22328 2.89994 7.91636 2.44061 7.52945 2.0537C7.14254 1.66679 6.68321 1.35988 6.17769 1.15048C5.67216 0.941087 5.13035 0.833313 4.58317 0.833313ZM4.58317 8.33331C3.9239 8.33331 3.27944 8.13782 2.73127 7.77154C2.18311 7.40527 1.75587 6.88468 1.50357 6.27559C1.25128 5.6665 1.18527 4.99628 1.31389 4.34968C1.44251 3.70308 1.75997 3.10913 2.22615 2.64296C2.69232 2.17678 3.28627 1.85931 3.93287 1.7307C4.57947 1.60208 5.2497 1.66809 5.85878 1.92038C6.46787 2.17267 6.98847 2.59992 7.35474 3.14808C7.72101 3.69624 7.91651 4.34071 7.91651 4.99998C7.91651 5.88404 7.56532 6.73188 6.9402 7.357C6.31507 7.98212 5.46723 8.33331 4.58317 8.33331ZM5.87484 5.26248L4.99984 4.75831V2.91665C4.99984 2.80614 4.95594 2.70016 4.8778 2.62202C4.79966 2.54388 4.69368 2.49998 4.58317 2.49998C4.47267 2.49998 4.36668 2.54388 4.28854 2.62202C4.2104 2.70016 4.16651 2.80614 4.16651 2.91665V4.99998C4.16651 4.99998 4.16651 5.03331 4.16651 5.04998C4.16897 5.07869 4.17601 5.10682 4.18734 5.13331C4.19592 5.15803 4.20709 5.18178 4.22067 5.20415C4.23207 5.22783 4.24605 5.25019 4.26234 5.27081L4.32901 5.32498L4.36651 5.36248L5.44984 5.98748C5.51334 6.02347 5.58518 6.04215 5.65817 6.04165C5.75043 6.04229 5.84029 6.0123 5.91367 5.95637C5.98704 5.90044 6.03978 5.82175 6.06361 5.73262C6.08744 5.64349 6.08102 5.54897 6.04535 5.46389C6.00968 5.3788 5.94677 5.30796 5.86651 5.26248H5.87484Z" fill="#AAAAAA"/>
</svg>
