<svg width="20" height="20" viewBox="0 0 20 20" fill="none" xmlns="http://www.w3.org/2000/svg">
<path d="M16.85 13.69C16.6626 13.5037 16.4092 13.3992 16.145 13.3992C15.8808 13.3992 15.6274 13.5037 15.44 13.69L13.38 15.75C13.2567 15.8743 13.1681 16.0288 13.1232 16.1981C13.0784 16.3674 13.0787 16.5454 13.1243 16.7145C13.1699 16.8836 13.259 17.0378 13.3829 17.1616C13.5067 17.2854 13.6609 17.3745 13.83 17.42L14.09 17.49L13.29 18.29C13.1963 18.383 13.1219 18.4936 13.0711 18.6154C13.0203 18.7373 12.9942 18.868 12.9942 19C12.9942 19.132 13.0203 19.2627 13.0711 19.3846C13.1219 19.5064 13.1963 19.617 13.29 19.71C13.383 19.8037 13.4936 19.8781 13.6154 19.9289C13.7373 19.9797 13.868 20.0058 14 20.0058C14.132 20.0058 14.2627 19.9797 14.3846 19.9289C14.5064 19.8781 14.617 19.8037 14.71 19.71L16.71 17.71C16.8403 17.5828 16.9333 17.4224 16.9792 17.2462C17.025 17.07 17.0218 16.8846 16.97 16.71C16.9248 16.5396 16.8353 16.3841 16.7106 16.2594C16.5859 16.1347 16.4304 16.0452 16.26 16L16 15.94L16.83 15.1C17.0189 14.9153 17.1271 14.6633 17.1308 14.3991C17.1346 14.1349 17.0336 13.88 16.85 13.69ZM5.91 17.49L6.17 17.42C6.3391 17.3745 6.49329 17.2854 6.61714 17.1616C6.74098 17.0378 6.83015 16.8836 6.87571 16.7145C6.92127 16.5454 6.92163 16.3674 6.87676 16.1981C6.83188 16.0288 6.74334 15.8743 6.62 15.75L4.56 13.69C4.3687 13.5262 4.12262 13.4406 3.87095 13.4503C3.61927 13.46 3.38053 13.5643 3.20244 13.7424C3.02434 13.9205 2.92001 14.1593 2.91029 14.4109C2.90057 14.6626 2.98617 14.9087 3.15 15.1L3.98 15.94L3.72 16C3.54956 16.0452 3.39412 16.1347 3.26943 16.2594C3.14474 16.3841 3.05524 16.5396 3.01 16.71C2.95819 16.8846 2.95502 17.07 3.00084 17.2462C3.04666 17.4224 3.13973 17.5828 3.27 17.71L5.27 19.71C5.36296 19.8037 5.47356 19.8781 5.59542 19.9289C5.71728 19.9797 5.84799 20.0058 5.98 20.0058C6.11201 20.0058 6.24272 19.9797 6.36458 19.9289C6.48644 19.8781 6.59704 19.8037 6.69 19.71C6.78373 19.617 6.85812 19.5064 6.90889 19.3846C6.95966 19.2627 6.9858 19.132 6.9858 19C6.9858 18.868 6.95966 18.7373 6.90889 18.6154C6.85812 18.4936 6.78373 18.383 6.69 18.29L5.91 17.49ZM19 2C18.7348 2 18.4804 2.10536 18.2929 2.29289C18.1054 2.48043 18 2.73478 18 3H15C15 2.20435 14.6839 1.44129 14.1213 0.87868C13.5587 0.316071 12.7956 0 12 0H8C7.20435 0 6.44129 0.316071 5.87868 0.87868C5.31607 1.44129 5 2.20435 5 3H2C2 2.73478 1.89464 2.48043 1.70711 2.29289C1.51957 2.10536 1.26522 2 1 2C0.734784 2 0.48043 2.10536 0.292893 2.29289C0.105357 2.48043 0 2.73478 0 3V5C0 5.26522 0.105357 5.51957 0.292893 5.70711C0.48043 5.89464 0.734784 6 1 6C1.26522 6 1.51957 5.89464 1.70711 5.70711C1.89464 5.51957 2 5.26522 2 5H5V7C4.99967 7.62065 5.19186 8.22613 5.55006 8.73298C5.90826 9.23984 6.41484 9.62312 7 9.83V11C7 11.5304 7.21071 12.0391 7.58579 12.4142C7.96086 12.7893 8.46957 13 9 13V19C9 19.2652 9.10536 19.5196 9.29289 19.7071C9.48043 19.8946 9.73478 20 10 20C10.2652 20 10.5196 19.8946 10.7071 19.7071C10.8946 19.5196 11 19.2652 11 19V13C11.5304 13 12.0391 12.7893 12.4142 12.4142C12.7893 12.0391 13 11.5304 13 11V9.83C13.5852 9.62312 14.0917 9.23984 14.4499 8.73298C14.8081 8.22613 15.0003 7.62065 15 7V5H18C18 5.26522 18.1054 5.51957 18.2929 5.70711C18.4804 5.89464 18.7348 6 19 6C19.2652 6 19.5196 5.89464 19.7071 5.70711C19.8946 5.51957 20 5.26522 20 5V3C20 2.73478 19.8946 2.48043 19.7071 2.29289C19.5196 2.10536 19.2652 2 19 2ZM13 7C13 7.26522 12.8946 7.51957 12.7071 7.70711C12.5196 7.89464 12.2652 8 12 8C11.7348 8 11.4804 8.10536 11.2929 8.29289C11.1054 8.48043 11 8.73478 11 9V11H9V9C9 8.73478 8.89464 8.48043 8.70711 8.29289C8.51957 8.10536 8.26522 8 8 8C7.73478 8 7.48043 7.89464 7.29289 7.70711C7.10536 7.51957 7 7.26522 7 7V3C7 2.73478 7.10536 2.48043 7.29289 2.29289C7.48043 2.10536 7.73478 2 8 2H12C12.2652 2 12.5196 2.10536 12.7071 2.29289C12.8946 2.48043 13 2.73478 13 3V7ZM10 4C9.73478 4 9.48043 4.10536 9.29289 4.29289C9.10536 4.48043 9 4.73478 9 5V6C9 6.26522 9.10536 6.51957 9.29289 6.70711C9.48043 6.89464 9.73478 7 10 7C10.2652 7 10.5196 6.89464 10.7071 6.70711C10.8946 6.51957 11 6.26522 11 6V5C11 4.73478 10.8946 4.48043 10.7071 4.29289C10.5196 4.10536 10.2652 4 10 4Z" fill="#FFDD3F"/>
</svg>
